<svg xmlns="http://www.w3.org/2000/svg" viewBox="0 0 48 48" fill="none" stroke="#4A3A30" stroke-width="2.6" stroke-linecap="round" stroke-linejoin="round"><path d="M24 15.6v9" stroke-width="3"/><defs><circle cx="24" cy="9.4" r="6.6" id="s21"/><clipPath id="cs21"><use href="#s21"/></clipPath></defs><g><use href="#s21" fill="#B9C3CC" stroke="none"/><rect x="-20" y="11" width="90" height="70" fill="#4A3A30" opacity=".13" clip-path="url(#cs21)"/><use href="#s21" fill="none"/></g><circle cx="24" cy="9.4" r="2.1" fill="#4A3A30" stroke="none"/><path d="M24 27C21 32 17.4 35 14.2 37.4M24 27C27 32 30.6 35 33.8 37.4" stroke-width="8"/><path d="M24 27C21 32 17.4 35 14.2 37.4M24 27C27 32 30.6 35 33.8 37.4" stroke="#E9B86E" stroke-width="3.4"/><defs><circle cx="24" cy="25.4" r="3.2" id="s22"/><clipPath id="cs22"><use href="#s22"/></clipPath></defs><g><use href="#s22" fill="#D9D1C6" stroke="none"/><rect x="-20" y="26.6" width="90" height="70" fill="#4A3A30" opacity=".13" clip-path="url(#cs22)"/><use href="#s22" fill="none"/></g><defs><circle cx="12.6" cy="39.2" r="4.4" id="s23"/><clipPath id="cs23"><use href="#s23"/></clipPath></defs><g><use href="#s23" fill="#EE8AA0" stroke="none"/><rect x="-20" y="40.4" width="90" height="70" fill="#4A3A30" opacity=".13" clip-path="url(#cs23)"/><use href="#s23" fill="none"/></g><defs><circle cx="35.4" cy="39.2" r="4.4" id="s24"/><clipPath id="cs24"><use href="#s24"/></clipPath></defs><g><use href="#s24" fill="#EE8AA0" stroke="none"/><rect x="-20" y="40.4" width="90" height="70" fill="#4A3A30" opacity=".13" clip-path="url(#cs24)"/><use href="#s24" fill="none"/></g></svg>
